<svg width="211" height="33" viewBox="0 0 211 33" fill="none" xmlns="http://www.w3.org/2000/svg">
<path d="M9.554 32.3401C7.80867 32.3401 6.222 32.0454 4.794 31.4561C3.38867 30.8441 2.26667 29.9488 1.428 28.7701C0.589333 27.5914 0.124667 26.1861 0.034 24.5541L0 23.1941L0.034 21.8001C0.102 20.1681 0.555333 18.7628 1.394 17.5841C2.25533 16.4054 3.38867 15.5101 4.794 14.8981C6.222 14.2861 7.80867 13.9801 9.554 13.9801C11.7753 13.9801 13.634 14.3881 15.13 15.2041C16.626 15.9974 17.7253 16.9268 18.428 17.9921C19.1533 19.0574 19.516 19.9414 19.516 20.6441C19.516 20.8708 19.4253 21.0748 19.244 21.2561C19.0627 21.4148 18.8473 21.4941 18.598 21.4941H11.968C11.5373 21.4941 11.2087 21.2674 10.982 20.8141C10.8007 20.4514 10.6193 20.1908 10.438 20.0321C10.2793 19.8734 10.0413 19.7941 9.724 19.7941C9.22533 19.7941 8.874 19.9754 8.67 20.3381C8.48867 20.7008 8.38667 21.2448 8.364 21.9701L8.33 23.2961L8.364 24.3841C8.40933 25.1548 8.52267 25.7101 8.704 26.0501C8.88533 26.3674 9.22533 26.5261 9.724 26.5261C10.0867 26.5261 10.3473 26.4581 10.506 26.3221C10.6647 26.1634 10.8233 25.8914 10.982 25.5061C11.1633 25.0528 11.492 24.8261 11.968 24.8261H18.598C18.8473 24.8261 19.0627 24.9168 19.244 25.0981C19.4253 25.2568 19.516 25.4494 19.516 25.6761C19.516 26.3108 19.176 27.1608 18.496 28.2261C17.816 29.2914 16.728 30.2434 15.232 31.0821C13.7587 31.9208 11.866 32.3401 9.554 32.3401Z" fill="#ADD57F"/>
<path d="M22.6124 32.0001C22.3631 32.0001 22.1477 31.9094 21.9664 31.7281C21.7851 31.5468 21.6944 31.3314 21.6944 31.0821V15.2381C21.6944 14.9888 21.7851 14.7734 21.9664 14.5921C22.1477 14.4108 22.3631 14.3201 22.6124 14.3201H28.5624C28.8117 14.3201 29.0271 14.4108 29.2084 14.5921C29.3897 14.7734 29.4804 14.9888 29.4804 15.2381V16.4281C30.2284 15.7708 31.0557 15.2608 31.9624 14.8981C32.8691 14.5128 33.8097 14.3201 34.7844 14.3201H36.4164C36.6657 14.3201 36.8811 14.4108 37.0624 14.5921C37.2437 14.7734 37.3344 14.9888 37.3344 15.2381V20.5421C37.3344 20.7914 37.2437 21.0068 37.0624 21.1881C36.8811 21.3694 36.6657 21.4601 36.4164 21.4601H32.0304C30.6704 21.4601 29.9904 22.1401 29.9904 23.5001V31.0821C29.9904 31.3314 29.8997 31.5468 29.7184 31.7281C29.5371 31.9094 29.3217 32.0001 29.0724 32.0001H22.6124Z" fill="#ADD57F"/>
<path d="M48.438 32.3401C45.3554 32.3401 42.964 31.5921 41.264 30.0961C39.564 28.5774 38.714 26.2768 38.714 23.1941V22.9561C38.7594 20.0774 39.6434 17.8674 41.366 16.3261C43.1114 14.7621 45.4574 13.9801 48.404 13.9801C50.5347 13.9801 52.3254 14.3994 53.776 15.2381C55.2494 16.0541 56.3374 17.1648 57.04 18.5701C57.7427 19.9528 58.094 21.5054 58.094 23.2281V24.2481C58.094 24.4974 58.0034 24.7128 57.822 24.8941C57.6407 25.0754 57.4254 25.1661 57.176 25.1661H47.044V25.3361C47.044 26.0388 47.146 26.5601 47.35 26.9001C47.554 27.2401 47.894 27.4101 48.37 27.4101C48.5514 27.4101 48.6987 27.3761 48.812 27.3081C48.9254 27.2174 49.1067 27.0474 49.356 26.7981C49.56 26.5941 49.73 26.4694 49.866 26.4241C50.002 26.3561 50.206 26.3221 50.478 26.3221H56.904C57.108 26.3221 57.278 26.3901 57.414 26.5261C57.5727 26.6394 57.6521 26.7981 57.6521 27.0021C57.6521 27.6368 57.3007 28.3848 56.598 29.2461C55.8954 30.0848 54.8414 30.8101 53.436 31.4221C52.0534 32.0341 50.3874 32.3401 48.438 32.3401ZM49.764 20.9161V20.8821C49.764 19.4541 49.3107 18.7401 48.404 18.7401C47.4974 18.7401 47.044 19.4541 47.044 20.8821V20.9161H49.764Z" fill="#ADD57F"/>
<path d="M67.2416 32.3401C65.1336 32.3401 63.4336 31.7054 62.1416 30.4361C60.8496 29.1668 60.147 27.1834 60.0336 24.4861L59.9996 23.1261L60.0336 21.8001C60.1243 19.2388 60.827 17.3008 62.1416 15.9861C63.479 14.6488 65.179 13.9801 67.2416 13.9801C69.0776 13.9801 70.585 14.5128 71.7636 15.5781V8.77811C71.7636 8.52877 71.8543 8.31344 72.0356 8.13211C72.217 7.95077 72.4323 7.86011 72.6816 7.86011H78.9716C79.221 7.86011 79.4363 7.95077 79.6176 8.13211C79.799 8.31344 79.8896 8.52877 79.8896 8.77811V31.0821C79.8896 31.3314 79.799 31.5468 79.6176 31.7281C79.4363 31.9094 79.221 32.0001 78.9716 32.0001H73.1916C72.9423 32.0001 72.727 31.9094 72.5456 31.7281C72.3643 31.5468 72.2736 31.3314 72.2736 31.0821V30.3001C71.0723 31.6601 69.395 32.3401 67.2416 32.3401ZM70.0636 26.2541C70.653 26.2541 71.0723 26.0954 71.3216 25.7781C71.571 25.4381 71.7183 24.9394 71.7636 24.2821C71.809 23.6021 71.8316 23.1828 71.8316 23.0241C71.8316 22.8654 71.809 22.4461 71.7636 21.7661C71.7183 21.1994 71.5596 20.7801 71.2876 20.5081C71.0383 20.2134 70.6303 20.0661 70.0636 20.0661C69.4743 20.0661 69.055 20.2248 68.8056 20.5421C68.579 20.8594 68.4316 21.3581 68.3636 22.0381C68.341 22.2648 68.3296 22.6388 68.3296 23.1601C68.3296 23.6814 68.341 24.0554 68.3636 24.2821C68.4316 24.9621 68.579 25.4608 68.8056 25.7781C69.055 26.0954 69.4743 26.2541 70.0636 26.2541Z" fill="#ADD57F"/>
<path d="M83.8722 32.0001C83.6228 32.0001 83.4075 31.9094 83.2262 31.7281C83.0448 31.5468 82.9542 31.3314 82.9542 31.0821V15.2381C82.9542 14.9888 83.0448 14.7734 83.2262 14.5921C83.4075 14.4108 83.6228 14.3201 83.8722 14.3201H89.9582C90.2075 14.3201 90.4228 14.4108 90.6042 14.5921C90.7855 14.7734 90.8762 14.9888 90.8762 15.2381V31.0821C90.8762 31.3314 90.7855 31.5468 90.6042 31.7281C90.4228 31.9094 90.2075 32.0001 89.9582 32.0001H83.8722Z" fill="#ADD57F"/>
<path d="M104.892 32.0001C102.218 32.0001 100.132 31.4448 98.6364 30.3341C97.1404 29.2008 96.3924 27.3194 96.3924 24.6901V20.2701H93.7064C93.4571 20.2701 93.2417 20.1794 93.0604 19.9981C92.8791 19.8168 92.7884 19.6014 92.7884 19.3521V15.2381C92.7884 14.9888 92.8791 14.7734 93.0604 14.5921C93.2417 14.4108 93.4571 14.3201 93.7064 14.3201H96.3924V8.77811C96.3924 8.52877 96.4831 8.31344 96.6644 8.13211C96.8457 7.95077 97.0611 7.86011 97.3104 7.86011H103.26C103.51 7.86011 103.725 7.95077 103.906 8.13211C104.088 8.31344 104.178 8.52877 104.178 8.77811V14.3201H108.462C108.712 14.3201 108.927 14.4108 109.108 14.5921C109.29 14.7734 109.38 14.9888 109.38 15.2381V19.3521C109.38 19.6014 109.29 19.8168 109.108 19.9981C108.927 20.1794 108.712 20.2701 108.462 20.2701H104.178V24.0101C104.178 25.1434 104.666 25.7101 105.64 25.7101H108.734C108.984 25.7101 109.199 25.8008 109.38 25.9821C109.562 26.1634 109.652 26.3788 109.652 26.6281V31.0821C109.652 31.3314 109.562 31.5468 109.38 31.7281C109.199 31.9094 108.984 32.0001 108.734 32.0001H104.892Z" fill="#ADD57F"/>
<path d="M121.05 32.3401C119.305 32.3401 117.718 32.0454 116.29 31.4561C114.885 30.8441 113.763 29.9488 112.924 28.7701C112.085 27.5914 111.621 26.1861 111.53 24.5541L111.496 23.1941L111.53 21.8001C111.598 20.1681 112.051 18.7628 112.89 17.5841C113.751 16.4054 114.885 15.5101 116.29 14.8981C117.718 14.2861 119.305 13.9801 121.05 13.9801C123.271 13.9801 125.13 14.3881 126.626 15.2041C128.122 15.9974 129.221 16.9268 129.924 17.9921C130.649 19.0574 131.012 19.9414 131.012 20.6441C131.012 20.8708 130.921 21.0748 130.74 21.2561C130.559 21.4148 130.343 21.4941 130.094 21.4941H123.464C123.033 21.4941 122.705 21.2674 122.478 20.8141C122.297 20.4514 122.115 20.1908 121.934 20.0321C121.775 19.8734 121.537 19.7941 121.22 19.7941C120.721 19.7941 120.37 19.9754 120.166 20.3381C119.985 20.7008 119.883 21.2448 119.86 21.9701L119.826 23.2961L119.86 24.3841C119.905 25.1548 120.019 25.7101 120.2 26.0501C120.381 26.3674 120.721 26.5261 121.22 26.5261C121.583 26.5261 121.843 26.4581 122.002 26.3221C122.161 26.1634 122.319 25.8914 122.478 25.5061C122.659 25.0528 122.988 24.8261 123.464 24.8261H130.094C130.343 24.8261 130.559 24.9168 130.74 25.0981C130.921 25.2568 131.012 25.4494 131.012 25.6761C131.012 26.3108 130.672 27.1608 129.992 28.2261C129.312 29.2914 128.224 30.2434 126.728 31.0821C125.255 31.9208 123.362 32.3401 121.05 32.3401Z" fill="#ADD57F"/>
<path d="M142.336 32.3401C139.254 32.3401 136.862 31.5921 135.162 30.0961C133.462 28.5774 132.612 26.2768 132.612 23.1941V22.9561C132.658 20.0774 133.542 17.8674 135.264 16.3261C137.01 14.7621 139.356 13.9801 142.302 13.9801C144.433 13.9801 146.224 14.3994 147.674 15.2381C149.148 16.0541 150.236 17.1648 150.938 18.5701C151.641 19.9528 151.992 21.5054 151.992 23.2281V24.2481C151.992 24.4974 151.902 24.7128 151.72 24.8941C151.539 25.0754 151.324 25.1661 151.074 25.1661H140.942V25.3361C140.942 26.0388 141.044 26.5601 141.248 26.9001C141.452 27.2401 141.792 27.4101 142.268 27.4101C142.45 27.4101 142.597 27.3761 142.71 27.3081C142.824 27.2174 143.005 27.0474 143.254 26.7981C143.458 26.5941 143.628 26.4694 143.764 26.4241C143.9 26.3561 144.104 26.3221 144.376 26.3221H150.802C151.006 26.3221 151.176 26.3901 151.312 26.5261C151.471 26.6394 151.55 26.7981 151.55 27.0021C151.55 27.6368 151.199 28.3848 150.496 29.2461C149.794 30.0848 148.74 30.8101 147.334 31.4221C145.952 32.0341 144.286 32.3401 142.336 32.3401ZM143.662 20.9161V20.8821C143.662 19.4541 143.209 18.7401 142.302 18.7401C141.396 18.7401 140.942 19.4541 140.942 20.8821V20.9161H143.662Z" fill="#ADD57F"/>
<path d="M155.292 32.0001C155.043 32.0001 154.827 31.9094 154.646 31.7281C154.465 31.5468 154.374 31.3314 154.374 31.0821V15.2381C154.374 14.9888 154.465 14.7734 154.646 14.5921C154.827 14.4108 155.043 14.3201 155.292 14.3201H161.242C161.491 14.3201 161.707 14.4108 161.888 14.5921C162.069 14.7734 162.16 14.9888 162.16 15.2381V16.3601C162.749 15.6574 163.543 15.0908 164.54 14.6601C165.56 14.2068 166.648 13.9801 167.804 13.9801C169.005 13.9801 170.105 14.2634 171.102 14.8301C172.099 15.3741 172.893 16.2241 173.482 17.3801C174.094 18.5361 174.4 19.9754 174.4 21.6981V31.0821C174.4 31.3314 174.309 31.5468 174.128 31.7281C173.947 31.9094 173.731 32.0001 173.482 32.0001H166.988C166.739 32.0001 166.523 31.9094 166.342 31.7281C166.161 31.5468 166.07 31.3314 166.07 31.0821V21.9361C166.07 21.3241 165.923 20.8594 165.628 20.5421C165.333 20.2248 164.914 20.0661 164.37 20.0661C163.826 20.0661 163.407 20.2248 163.112 20.5421C162.817 20.8594 162.67 21.3241 162.67 21.9361V31.0821C162.67 31.3314 162.579 31.5468 162.398 31.7281C162.217 31.9094 162.001 32.0001 161.752 32.0001H155.292Z" fill="#ADD57F"/>
<path d="M188.099 32.0001C185.425 32.0001 183.339 31.4448 181.843 30.3341C180.347 29.2008 179.599 27.3194 179.599 24.6901V20.2701H176.913C176.664 20.2701 176.449 20.1794 176.267 19.9981C176.086 19.8168 175.995 19.6014 175.995 19.3521V15.2381C175.995 14.9888 176.086 14.7734 176.267 14.5921C176.449 14.4108 176.664 14.3201 176.913 14.3201H179.599V8.77811C179.599 8.52877 179.69 8.31344 179.871 8.13211C180.053 7.95077 180.268 7.86011 180.517 7.86011H186.467C186.717 7.86011 186.932 7.95077 187.113 8.13211C187.295 8.31344 187.385 8.52877 187.385 8.77811V14.3201H191.669C191.919 14.3201 192.134 14.4108 192.315 14.5921C192.497 14.7734 192.587 14.9888 192.587 15.2381V19.3521C192.587 19.6014 192.497 19.8168 192.315 19.9981C192.134 20.1794 191.919 20.2701 191.669 20.2701H187.385V24.0101C187.385 25.1434 187.873 25.7101 188.847 25.7101H191.941C192.191 25.7101 192.406 25.8008 192.587 25.9821C192.769 26.1634 192.859 26.3788 192.859 26.6281V31.0821C192.859 31.3314 192.769 31.5468 192.587 31.7281C192.406 31.9094 192.191 32.0001 191.941 32.0001H188.099Z" fill="#ADD57F"/>
<path d="M196.165 32.0001C195.916 32.0001 195.7 31.9094 195.519 31.7281C195.338 31.5468 195.247 31.3314 195.247 31.0821V15.2381C195.247 14.9888 195.338 14.7734 195.519 14.5921C195.7 14.4108 195.916 14.3201 196.165 14.3201H202.115C202.364 14.3201 202.58 14.4108 202.761 14.5921C202.942 14.7734 203.033 14.9888 203.033 15.2381V16.4281C203.781 15.7708 204.608 15.2608 205.515 14.8981C206.422 14.5128 207.362 14.3201 208.337 14.3201H209.969C210.218 14.3201 210.434 14.4108 210.615 14.5921C210.796 14.7734 210.887 14.9888 210.887 15.2381V20.5421C210.887 20.7914 210.796 21.0068 210.615 21.1881C210.434 21.3694 210.218 21.4601 209.969 21.4601H205.583C204.223 21.4601 203.543 22.1401 203.543 23.5001V31.0821C203.543 31.3314 203.452 31.5468 203.271 31.7281C203.09 31.9094 202.874 32.0001 202.625 32.0001H196.165Z" fill="#ADD57F"/>
<circle cx="86.514" cy="5.5" r="5.5" fill="#ADD57F"/>
<circle cx="86.514" cy="5.5" r="2.5" fill="#DCECC8"/>
</svg>
