<svg width="212" height="33" viewBox="0 0 212 33" fill="none" xmlns="http://www.w3.org/2000/svg">
<path d="M10.54 32.34C8.79466 32.34 7.20799 32.0453 5.77999 31.456C4.37466 30.844 3.25266 29.9487 2.41399 28.77C1.57533 27.5913 1.11066 26.186 1.01999 24.554L0.985992 23.194L1.01999 21.8C1.08799 20.168 1.54133 18.7627 2.37999 17.584C3.24133 16.4053 4.37466 15.51 5.77999 14.898C7.20799 14.286 8.79466 13.98 10.54 13.98C12.7613 13.98 14.62 14.388 16.116 15.204C17.612 15.9973 18.7113 16.9267 19.414 17.992C20.1393 19.0573 20.502 19.9413 20.502 20.644C20.502 20.8707 20.4113 21.0747 20.23 21.256C20.0487 21.4147 19.8333 21.494 19.584 21.494H12.954C12.5233 21.494 12.1947 21.2673 11.968 20.814C11.7867 20.4513 11.6053 20.1907 11.424 20.032C11.2653 19.8733 11.0273 19.794 10.71 19.794C10.2113 19.794 9.85999 19.9753 9.65599 20.338C9.47466 20.7007 9.37266 21.2447 9.34999 21.97L9.31599 23.296L9.34999 24.384C9.39533 25.1547 9.50866 25.71 9.68999 26.05C9.87133 26.3673 10.2113 26.526 10.71 26.526C11.0727 26.526 11.3333 26.458 11.492 26.322C11.6507 26.1633 11.8093 25.8913 11.968 25.506C12.1493 25.0527 12.478 24.826 12.954 24.826H19.584C19.8333 24.826 20.0487 24.9167 20.23 25.098C20.4113 25.2567 20.502 25.4493 20.502 25.676C20.502 26.3107 20.162 27.1607 19.482 28.226C18.802 29.2913 17.714 30.2433 16.218 31.082C14.7447 31.9207 12.852 32.34 10.54 32.34Z" fill="#ADD57F"/>
<path d="M23.5984 32C23.3491 32 23.1337 31.9093 22.9524 31.728C22.771 31.5467 22.6804 31.3313 22.6804 31.082V15.238C22.6804 14.9887 22.771 14.7733 22.9524 14.592C23.1337 14.4107 23.3491 14.32 23.5984 14.32H29.5484C29.7977 14.32 30.0131 14.4107 30.1944 14.592C30.3757 14.7733 30.4664 14.9887 30.4664 15.238V16.428C31.2144 15.7707 32.0417 15.2607 32.9484 14.898C33.855 14.5127 34.7957 14.32 35.7704 14.32H37.4024C37.6517 14.32 37.8671 14.4107 38.0484 14.592C38.2297 14.7733 38.3204 14.9887 38.3204 15.238V20.542C38.3204 20.7913 38.2297 21.0067 38.0484 21.188C37.8671 21.3693 37.6517 21.46 37.4024 21.46H33.0164C31.6564 21.46 30.9764 22.14 30.9764 23.5V31.082C30.9764 31.3313 30.8857 31.5467 30.7044 31.728C30.5231 31.9093 30.3077 32 30.0584 32H23.5984Z" fill="#ADD57F"/>
<path d="M49.424 32.34C46.3414 32.34 43.95 31.592 42.25 30.096C40.55 28.5773 39.7 26.2767 39.7 23.194V22.956C39.7454 20.0773 40.6294 17.8673 42.352 16.326C44.0974 14.762 46.4434 13.98 49.39 13.98C51.5207 13.98 53.3114 14.3993 54.762 15.238C56.2354 16.054 57.3234 17.1647 58.026 18.57C58.7287 19.9527 59.08 21.5053 59.08 23.228V24.248C59.08 24.4973 58.9894 24.7127 58.808 24.894C58.6267 25.0753 58.4114 25.166 58.162 25.166H48.03V25.336C48.03 26.0387 48.132 26.56 48.336 26.9C48.54 27.24 48.88 27.41 49.356 27.41C49.5374 27.41 49.6847 27.376 49.798 27.308C49.9114 27.2173 50.0927 27.0473 50.342 26.798C50.546 26.594 50.716 26.4693 50.852 26.424C50.988 26.356 51.192 26.322 51.464 26.322H57.89C58.094 26.322 58.264 26.39 58.4 26.526C58.5587 26.6393 58.638 26.798 58.638 27.002C58.638 27.6367 58.2867 28.3847 57.584 29.246C56.8814 30.0847 55.8274 30.81 54.422 31.422C53.0394 32.034 51.3734 32.34 49.424 32.34ZM50.75 20.916V20.882C50.75 19.454 50.2967 18.74 49.39 18.74C48.4834 18.74 48.03 19.454 48.03 20.882V20.916H50.75Z" fill="#ADD57F"/>
<path d="M68.2276 32.34C66.1196 32.34 64.4196 31.7053 63.1276 30.436C61.8356 29.1667 61.133 27.1833 61.0196 24.486L60.9856 23.126L61.0196 21.8C61.1103 19.2387 61.813 17.3007 63.1276 15.986C64.465 14.6487 66.165 13.98 68.2276 13.98C70.0636 13.98 71.571 14.5127 72.7496 15.578V8.778C72.7496 8.52867 72.8403 8.31333 73.0216 8.132C73.203 7.95067 73.4183 7.86 73.6676 7.86H79.9576C80.207 7.86 80.4223 7.95067 80.6036 8.132C80.785 8.31333 80.8756 8.52867 80.8756 8.778V31.082C80.8756 31.3313 80.785 31.5467 80.6036 31.728C80.4223 31.9093 80.207 32 79.9576 32H74.1776C73.9283 32 73.713 31.9093 73.5316 31.728C73.3503 31.5467 73.2596 31.3313 73.2596 31.082V30.3C72.0583 31.66 70.381 32.34 68.2276 32.34ZM71.0496 26.254C71.639 26.254 72.0583 26.0953 72.3076 25.778C72.557 25.438 72.7043 24.9393 72.7496 24.282C72.795 23.602 72.8176 23.1827 72.8176 23.024C72.8176 22.8653 72.795 22.446 72.7496 21.766C72.7043 21.1993 72.5456 20.78 72.2736 20.508C72.0243 20.2133 71.6163 20.066 71.0496 20.066C70.4603 20.066 70.041 20.2247 69.7916 20.542C69.565 20.8593 69.4176 21.358 69.3496 22.038C69.327 22.2647 69.3156 22.6387 69.3156 23.16C69.3156 23.6813 69.327 24.0553 69.3496 24.282C69.4176 24.962 69.565 25.4607 69.7916 25.778C70.041 26.0953 70.4603 26.254 71.0496 26.254Z" fill="#ADD57F"/>
<path d="M84.8581 32C84.6088 32 84.3935 31.9093 84.2122 31.728C84.0308 31.5467 83.9401 31.3313 83.9401 31.082V15.238C83.9401 14.9887 84.0308 14.7733 84.2122 14.592C84.3935 14.4107 84.6088 14.32 84.8581 14.32H90.9442C91.1935 14.32 91.4088 14.4107 91.5901 14.592C91.7715 14.7733 91.8622 14.9887 91.8622 15.238V31.082C91.8622 31.3313 91.7715 31.5467 91.5901 31.728C91.4088 31.9093 91.1935 32 90.9442 32H84.8581Z" fill="#ADD57F"/>
<path d="M105.878 32C103.204 32 101.118 31.4447 99.6224 30.334C98.1264 29.2007 97.3784 27.3193 97.3784 24.69V20.27H94.6924C94.443 20.27 94.2277 20.1793 94.0464 19.998C93.8651 19.8167 93.7744 19.6013 93.7744 19.352V15.238C93.7744 14.9887 93.8651 14.7733 94.0464 14.592C94.2277 14.4107 94.443 14.32 94.6924 14.32H97.3784V8.778C97.3784 8.52867 97.469 8.31333 97.6504 8.132C97.8317 7.95067 98.0471 7.86 98.2964 7.86H104.246C104.496 7.86 104.711 7.95067 104.892 8.132C105.074 8.31333 105.164 8.52867 105.164 8.778V14.32H109.448C109.698 14.32 109.913 14.4107 110.094 14.592C110.276 14.7733 110.366 14.9887 110.366 15.238V19.352C110.366 19.6013 110.276 19.8167 110.094 19.998C109.913 20.1793 109.698 20.27 109.448 20.27H105.164V24.01C105.164 25.1433 105.652 25.71 106.626 25.71H109.72C109.97 25.71 110.185 25.8007 110.366 25.982C110.548 26.1633 110.638 26.3787 110.638 26.628V31.082C110.638 31.3313 110.548 31.5467 110.366 31.728C110.185 31.9093 109.97 32 109.72 32H105.878Z" fill="#ADD57F"/>
<path d="M122.036 32.34C120.291 32.34 118.704 32.0453 117.276 31.456C115.871 30.844 114.749 29.9487 113.91 28.77C113.071 27.5913 112.607 26.186 112.516 24.554L112.482 23.194L112.516 21.8C112.584 20.168 113.037 18.7627 113.876 17.584C114.737 16.4053 115.871 15.51 117.276 14.898C118.704 14.286 120.291 13.98 122.036 13.98C124.257 13.98 126.116 14.388 127.612 15.204C129.108 15.9973 130.207 16.9267 130.91 17.992C131.635 19.0573 131.998 19.9413 131.998 20.644C131.998 20.8707 131.907 21.0747 131.726 21.256C131.545 21.4147 131.329 21.494 131.08 21.494H124.45C124.019 21.494 123.691 21.2673 123.464 20.814C123.283 20.4513 123.101 20.1907 122.92 20.032C122.761 19.8733 122.523 19.794 122.206 19.794C121.707 19.794 121.356 19.9753 121.152 20.338C120.971 20.7007 120.869 21.2447 120.846 21.97L120.812 23.296L120.846 24.384C120.891 25.1547 121.005 25.71 121.186 26.05C121.367 26.3673 121.707 26.526 122.206 26.526C122.569 26.526 122.829 26.458 122.988 26.322C123.147 26.1633 123.305 25.8913 123.464 25.506C123.645 25.0527 123.974 24.826 124.45 24.826H131.08C131.329 24.826 131.545 24.9167 131.726 25.098C131.907 25.2567 131.998 25.4493 131.998 25.676C131.998 26.3107 131.658 27.1607 130.978 28.226C130.298 29.2913 129.21 30.2433 127.714 31.082C126.241 31.9207 124.348 32.34 122.036 32.34Z" fill="#ADD57F"/>
<path d="M143.322 32.34C140.24 32.34 137.848 31.592 136.148 30.096C134.448 28.5773 133.598 26.2767 133.598 23.194V22.956C133.644 20.0773 134.528 17.8673 136.25 16.326C137.996 14.762 140.342 13.98 143.288 13.98C145.419 13.98 147.21 14.3993 148.66 15.238C150.134 16.054 151.222 17.1647 151.924 18.57C152.627 19.9527 152.978 21.5053 152.978 23.228V24.248C152.978 24.4973 152.888 24.7127 152.706 24.894C152.525 25.0753 152.31 25.166 152.06 25.166H141.928V25.336C141.928 26.0387 142.03 26.56 142.234 26.9C142.438 27.24 142.778 27.41 143.254 27.41C143.436 27.41 143.583 27.376 143.696 27.308C143.81 27.2173 143.991 27.0473 144.24 26.798C144.444 26.594 144.614 26.4693 144.75 26.424C144.886 26.356 145.09 26.322 145.362 26.322H151.788C151.992 26.322 152.162 26.39 152.298 26.526C152.457 26.6393 152.536 26.798 152.536 27.002C152.536 27.6367 152.185 28.3847 151.482 29.246C150.78 30.0847 149.726 30.81 148.32 31.422C146.938 32.034 145.272 32.34 143.322 32.34ZM144.648 20.916V20.882C144.648 19.454 144.195 18.74 143.288 18.74C142.382 18.74 141.928 19.454 141.928 20.882V20.916H144.648Z" fill="#ADD57F"/>
<path d="M156.278 32C156.029 32 155.813 31.9093 155.632 31.728C155.451 31.5467 155.36 31.3313 155.36 31.082V15.238C155.36 14.9887 155.451 14.7733 155.632 14.592C155.813 14.4107 156.029 14.32 156.278 14.32H162.228C162.477 14.32 162.693 14.4107 162.874 14.592C163.055 14.7733 163.146 14.9887 163.146 15.238V16.36C163.735 15.6573 164.529 15.0907 165.526 14.66C166.546 14.2067 167.634 13.98 168.79 13.98C169.991 13.98 171.091 14.2633 172.088 14.83C173.085 15.374 173.879 16.224 174.468 17.38C175.08 18.536 175.386 19.9753 175.386 21.698V31.082C175.386 31.3313 175.295 31.5467 175.114 31.728C174.933 31.9093 174.717 32 174.468 32H167.974C167.725 32 167.509 31.9093 167.328 31.728C167.147 31.5467 167.056 31.3313 167.056 31.082V21.936C167.056 21.324 166.909 20.8593 166.614 20.542C166.319 20.2247 165.9 20.066 165.356 20.066C164.812 20.066 164.393 20.2247 164.098 20.542C163.803 20.8593 163.656 21.324 163.656 21.936V31.082C163.656 31.3313 163.565 31.5467 163.384 31.728C163.203 31.9093 162.987 32 162.738 32H156.278Z" fill="#ADD57F"/>
<path d="M189.085 32C186.411 32 184.325 31.4447 182.829 30.334C181.333 29.2007 180.585 27.3193 180.585 24.69V20.27H177.899C177.65 20.27 177.435 20.1793 177.253 19.998C177.072 19.8167 176.981 19.6013 176.981 19.352V15.238C176.981 14.9887 177.072 14.7733 177.253 14.592C177.435 14.4107 177.65 14.32 177.899 14.32H180.585V8.778C180.585 8.52867 180.676 8.31333 180.857 8.132C181.039 7.95067 181.254 7.86 181.503 7.86H187.453C187.703 7.86 187.918 7.95067 188.099 8.132C188.281 8.31333 188.371 8.52867 188.371 8.778V14.32H192.655C192.905 14.32 193.12 14.4107 193.301 14.592C193.483 14.7733 193.573 14.9887 193.573 15.238V19.352C193.573 19.6013 193.483 19.8167 193.301 19.998C193.12 20.1793 192.905 20.27 192.655 20.27H188.371V24.01C188.371 25.1433 188.859 25.71 189.833 25.71H192.927C193.177 25.71 193.392 25.8007 193.573 25.982C193.755 26.1633 193.845 26.3787 193.845 26.628V31.082C193.845 31.3313 193.755 31.5467 193.573 31.728C193.392 31.9093 193.177 32 192.927 32H189.085Z" fill="#ADD57F"/>
<path d="M197.151 32C196.902 32 196.686 31.9093 196.505 31.728C196.324 31.5467 196.233 31.3313 196.233 31.082V15.238C196.233 14.9887 196.324 14.7733 196.505 14.592C196.686 14.4107 196.902 14.32 197.151 14.32H203.101C203.35 14.32 203.566 14.4107 203.747 14.592C203.928 14.7733 204.019 14.9887 204.019 15.238V16.428C204.767 15.7707 205.594 15.2607 206.501 14.898C207.408 14.5127 208.348 14.32 209.323 14.32H210.955C211.204 14.32 211.42 14.4107 211.601 14.592C211.782 14.7733 211.873 14.9887 211.873 15.238V20.542C211.873 20.7913 211.782 21.0067 211.601 21.188C211.42 21.3693 211.204 21.46 210.955 21.46H206.569C205.209 21.46 204.529 22.14 204.529 23.5V31.082C204.529 31.3313 204.438 31.5467 204.257 31.728C204.076 31.9093 203.86 32 203.611 32H197.151Z" fill="#ADD57F"/>
<circle cx="87.5" cy="5.5" r="5.5" fill="#ADD57F"/>
<circle cx="87.5" cy="5.5" r="2.5" fill="#DCECC8"/>
</svg>
